# xmcd
#
# Track frame offsets:
#	150
#	10552
#	23080
#	33725
#	44802
#	57165
#	70427
#	81075
#	92065
#	104105
#	114850
#	124575
#	139322
#	151210
#	161200
#
# Disc length: 2333 seconds
# Revision: 15
# Processed by: cddbd v1.5.2PL0 Copyright (c) Steve Scherf et al.
# Submitted via: dBpowerAMP V12.0
#
DISCID=cb091b0f
DTITLE=Various Artist - Classic Country: 1965-1969 D1
DYEAR=1999
DGENRE=Country
TTITLE0=George Jones - Walk Through This World With Me
TTITLE1=June Carter Cash - Jackson
TTITLE2=The Statler Brothers - Flowers On the Wall
TTITLE3=Roger Miller - King of the Road
TTITLE4=Merle Haggard - Okie from Muskogee
TTITLE5=Kenny Rogers - Ruby, Don't Take Your Love To Town
TTITLE6=Johnny Cash - Daddy Sang Bass
TTITLE7=Artie Glenn - Crying In the Chapel
TTITLE8=Eddy Arnold - Make the World Go Away
TTITLE9=Waylon Jennings - Only Daddy That'll Walk the Line
TTITLE10=Loretta Lynn - Don't Come Home A Drinkin' (With Lovin' On Your Mind)
TTITLE11=Jeannie C. Riley - Harper Valley P.T.A.
TTITLE12=Henson Cargill - Skip A Rope
TTITLE13=Merle Haggard - Mama Tried
TTITLE14=Glen Campbell - Wichita Lineman
EXTD=
EXTT0=
EXTT1=
EXTT2=
EXTT3=
EXTT4=
EXTT5=
EXTT6=
EXTT7=
EXTT8=
EXTT9=
EXTT10=
EXTT11=
EXTT12=
EXTT13=
EXTT14=
PLAYORDER=
